# xmcd CD database file
# Copyright (C) 1993-1996 Ti Kan
#
# Track frame offsets:
#	150
#	10307
#	21560
#	30980
#	40590
#	51050
#	63240
#	71147
#	82395
#	93582
#	102497
#	112215
#	124310
#	134657
#	145060
#	155110
#
# Disc length: 2199 seconds
#
# Revision: 1
# Processed by: cddbd v1.4b41PL1 Copyright (c) Steve Scherf et al.
# Submitted via: CDValet v3.01 - Copyright (c) 1997 Greg Leichner
#
DISCID=f0089510
DTITLE=The Chuck Wagon Gang - 16 Country Gospel Favorities
DYEAR=1900
DGENRE=
TTITLE0=I'll Fly Away
TTITLE1=Softly and Tenderly
TTITLE2=The Church in the Wildwood
TTITLE3=The Whole World in His Hands
TTITLE4=Echoes from the Burning Bush
TTITLE5=Just a Closer Walk with Thee
TTITLE6=Now the Day Is Over
TTITLE7=Power in the Blood
TTITLE8=Amazing Grace
TTITLE9=Are You Washed in the Blood
TTITLE10=Whispering Hope
TTITLE11=Swing Down Chariot
TTITLE12=Shall We Gather at the River
TTITLE13=Rock of Ages
TTITLE14=When the Roll Is Called Up Yonder
TTITLE15=Standing on the Promises
EXTD=Courtesy of Copperfield Music Group\nProduced by Jack Eubanks\nExecutive 
EXTD=Producer: Ken Biddy
EXTT0=
EXTT1=
EXTT2=
EXTT3=
EXTT4=
EXTT5=
EXTT6=
EXTT7=
EXTT8=
EXTT9=
EXTT10=
EXTT11=
EXTT12=
EXTT13=
EXTT14=
EXTT15=
PLAYORDER=
